PathFileType	4	(X/Y/Z)	./resultDataOpenSim/trcMotMarkerGrf/sub06/qtm-02-02.trc
DataRate	CameraRate	NumFrames	NumMarkers	Units	OrigDataRate	OrigDataStartFrame	OrigNumFrames
250.000000	250.000000	14	24	m	250.000000	182	483
Frame#	Time	L.Toe.Tip			R.Toe.Tip			L.Ankle.Lat			R.Ankle.Lat			L.Ankle.Med			R.Ankle.Med			L.Heel			R.Heel			L.Knee.Lat			R.Knee.Lat			L.Knee.Med			R.Knee.Med			L.Thigh.Upper			R.Thigh.Upper			L.ASIS			R.ASIS			V.Sacral			L.Acromium			R.Acromium			C7			L.Elbow			R.Elbow			L.Wrist.Lat			R.Wrist.Lat
		X1	Y1	Z1	X2	Y2	Z2	X3	Y3	Z3	X4	Y4	Z4	X5	Y5	Z5	X6	Y6	Z6	X7	Y7	Z7	X8	Y8	Z8	X9	Y9	Z9	X10	Y10	Z10	X11	Y11	Z11	X12	Y12	Z12	X13	Y13	Z13	X14	Y14	Z14	X15	Y15	Z15	X16	Y16	Z16	X17	Y17	Z17	X18	Y18	Z18	X19	Y19	Z19	X20	Y20	Z20	X21	Y21	Z21	X22	Y22	Z22	X23	Y23	Z23	X24	Y24	Z24

182	0.724	0.085908639	0.0097359597	-0.064848714	-0.51286977	0.084793193	0.11218521	-0.036053765	0.041069047	-0.090886435	-0.5219078	0.22316811	0.13580182	-0.038548057	0.054606083	-0.0030898623	-0.48483162	0.20981153	0.054899364	-0.11386133	0.0151615	-0.048383706	-0.54862813	0.26599358	0.071808268	0.047072517	0.40412942	-0.11255572	-0.16785495	0.34832131	0.17567345	0.024846666	0.40106797	0.0074328409	-0.17014879	0.3330284	0.041673512	-0.11916333	0.76763291	-0.17209722	-0.20650177	0.70997998	0.1548736	-0.065832353	0.80291104	-0.11346283	-0.095215327	0.77450171	0.12883648	-0.26725034	0.86181027	-0.0015837822	-0.14330374	1.2552884	-0.19753185	-0.14491569	1.2684592	0.1641263	-0.22089668	1.3021388	-0.020056996	-0.25097791	0.95994988	-0.22895791	-0.19919767	0.95055856	0.2465611	-0.18131176	0.73450189	-0.28664711	0.021960433	0.83102761	0.23748171
183	0.728	0.085832295	0.0097555436	-0.064995629	-0.4965156	0.086543251	0.11362409	-0.036129084	0.041051952	-0.090949112	-0.50705259	0.22493704	0.13587956	-0.038485987	0.054700394	-0.0031567309	-0.4700303	0.21156534	0.054869417	-0.1139373	0.015232566	-0.04841321	-0.53470253	0.26714948	0.071621703	0.049268977	0.4036869	-0.11293099	-0.15407659	0.35052546	0.17626892	0.026301027	0.40126532	0.0070854858	-0.15730423	0.33596099	0.042422081	-0.11388926	0.76827316	-0.1724661	-0.1984574	0.71215512	0.1538942	-0.060053554	0.80351924	-0.11397049	-0.089427998	0.77629472	0.12913174	-0.26126632	0.86379407	-0.0022950001	-0.13589806	1.2569646	-0.19750159	-0.1388713	1.2700606	0.16436322	-0.21389638	1.3039083	-0.020229668	-0.24244586	0.96091352	-0.22932489	-0.19479325	0.95221684	0.24577007	-0.17019196	0.73605688	-0.28645764	0.024384463	0.82922032	0.23811627
184	0.732	0.085756722	0.0097810429	-0.065145526	-0.47992634	0.088137059	0.11493262	-0.036192287	0.041044346	-0.090997742	-0.49212255	0.22647828	0.13594431	-0.038426962	0.054808191	-0.0032301629	-0.45514974	0.21309276	0.054842497	-0.11400146	0.015307283	-0.048443301	-0.52070332	0.26802714	0.071454525	0.051328472	0.40330278	-0.113159	-0.14034899	0.35296626	0.17681259	0.027699677	0.40150906	0.0068645507	-0.14397983	0.33877218	0.043007741	-0.10887114	0.76896689	-0.17281925	-0.19101292	0.71423124	0.15326045	-0.054303532	0.80418213	-0.11450319	-0.083668795	0.77815722	0.12935812	-0.25517269	0.86575034	-0.0024126922	-0.12856924	1.2587377	-0.1974423	-0.13289851	1.2717416	0.16464267	-0.20695966	1.3057232	-0.020361795	-0.23391815	0.96193752	-0.22967368	-0.19040363	0.95395997	0.2450082	-0.15897754	0.73773771	-0.28622838	0.026582025	0.8275308	0.23881799
185	0.736	0.085687733	0.0097936152	-0.065253167	-0.46310524	0.089557941	0.11612173	-0.03624325	0.041045002	-0.091026076	-0.47713645	0.22777667	0.13600485	-0.038387023	0.054912873	-0.0032841083	-0.44014915	0.21437921	0.054835366	-0.11405624	0.01538097	-0.048466218	-0.50664562	0.26863896	0.071324668	0.053324087	0.4029817	-0.11323467	-0.12669797	0.35562631	0.17729652	0.029094655	0.40172905	0.00677979	-0.13013494	0.34143568	0.043400325	-0.10408139	0.76973338	-0.17316359	-0.18455087	0.71616902	0.15293018	-0.048560102	0.80491193	-0.11507167	-0.077884375	0.78006592	0.12948394	-0.24897039	0.86759108	-0.0018588355	-0.12131941	1.2606065	-0.1973499	-0.12698514	1.2734943	0.16494892	-0.20009047	1.3075847	-0.020448615	-0.22538928	0.96301735	-0.23000708	-0.18598316	0.95578986	0.24425828	-0.14767029	0.73954455	-0.28596241	0.028597485	0.82595008	0.23956226
186	0.74	0.085633009	0.009775815	-0.065276961	-0.44604899	0.090808709	0.11720734	-0.036284177	0.041054191	-0.091030812	-0.46210719	0.22880218	0.13607978	-0.038393984	0.054994012	-0.0033065535	-0.42498028	0.21541606	0.054824894	-0.11410369	0.015450652	-0.048470929	-0.49254825	0.26898212	0.071240148	0.055286549	0.40274577	-0.11316994	-0.1131411	0.35849666	0.1777136	0.03049764	0.4018959	0.0068207101	-0.11597968	0.34405688	0.043582389	-0.099443216	0.77058788	-0.17351262	-0.17886008	0.71808579	0.15281071	-0.042819585	0.80572159	-0.11568435	-0.072081948	0.78198695	0.12953216	-0.24275399	0.86931652	-0.0009062362	-0.11415367	1.2625658	-0.19722686	-0.12111649	1.2753047	0.16526911	-0.19329326	1.3094982	-0.020484964	-0.21684774	0.96415391	-0.23034126	-0.18157086	0.95770128	0.24352657	-0.13627595	0.74147178	-0.28566148	0.030508973	0.82447071	0.24032991
187	0.744	0.08558837	0.0097258308	-0.065212889	-0.42874747	0.091905533	0.11821462	-0.036317597	0.041072443	-0.091011346	-0.4470463	0.22952434	0.13618565	-0.038470821	0.055039448	-0.0033058291	-0.40964323	0.21622003	0.05480482	-0.11414026	0.015514738	-0.048441517	-0.47840453	0.2690324	0.071195454	0.057175308	0.40260769	-0.11298803	-0.099685229	0.36157041	0.17806503	0.03189682	0.40200367	0.0069651197	-0.10180657	0.34679468	0.043614889	-0.094838581	0.77154916	-0.17388248	-0.17355602	0.72013491	0.15287692	-0.037122721	0.80661945	-0.11633214	-0.066267978	0.78391177	0.12952376	-0.23663588	0.87102531	-3.2488958e-05	-0.10706972	1.264609	-0.19707873	-0.11526549	1.2771606	0.16559495	-0.18656332	1.3114549	-0.020475449	-0.20829244	0.96535269	-0.23068968	-0.17720257	0.95969117	0.24283065	-0.12480461	0.74351191	-0.28531998	0.032346265	0.82309053	0.24113242
188	0.748	0.085548311	0.0096627544	-0.065093953	-0.41120609	0.09284889	0.11916422	-0.036347252	0.041099082	-0.090970652	-0.43196037	0.22993698	0.13632037	-0.038605156	0.055057677	-0.003292336	-0.39422898	0.21684054	0.054828498	-0.11415846	0.015570365	-0.048363302	-0.46420292	0.26876052	0.071174924	0.058908324	0.40255149	-0.11271031	-0.086328653	0.36483943	0.17835837	0.033265187	0.40205718	0.0071910043	-0.087827929	0.3497571	0.043595044	-0.0901263	0.77264089	-0.17428645	-0.16833281	0.72238474	0.15316431	-0.031536908	0.80761403	-0.11698586	-0.060416615	0.78585996	0.12945333	-0.2306478	0.87286388	0.00039615842	-0.1000585	1.2667313	-0.19691109	-0.10939948	1.2790536	0.16591812	-0.17988769	1.3134396	-0.020430007	-0.19974668	0.96661783	-0.23103557	-0.17286916	0.96176914	0.24218042	-0.11326879	0.74566052	-0.28493081	0.03409381	0.82181007	0.24199585
189	0.752	0.085514675	0.0096065298	-0.064953803	-0.39346074	0.093612029	0.12005482	-0.036377866	0.04113236	-0.090916681	-0.41682499	0.23008428	0.13646672	-0.038757735	0.055077447	-0.0032720942	-0.37884291	0.21731367	0.054936315	-0.11415894	0.015614462	-0.04824052	-0.44995916	0.26815877	0.071168589	0.060435987	0.40254663	-0.1123558	-0.073063301	0.36829365	0.17860203	0.034569225	0.4020703	0.0074867702	-0.074094881	0.35292789	0.043578416	-0.08523259	0.77387071	-0.17471498	-0.16295665	0.72480886	0.15368794	-0.026083093	0.80872307	-0.11761378	-0.054498878	0.78785543	0.12931143	-0.22471321	0.87491729	0.00034305351	-0.093117329	1.2689307	-0.19672326	-0.10349745	1.2809758	0.16622635	-0.17325332	1.3154453	-0.020354323	-0.19121632	0.96794096	-0.23137714	-0.16854687	0.96395024	0.24157479	-0.10167113	0.74791963	-0.28449421	0.035729888	0.8206321	0.24292587
190	0.756	0.085479869	0.0095555934	-0.064808679	-0.37554756	0.094172326	0.12087354	-0.03641574	0.041171642	-0.090863238	-0.401564	0.23005766	0.13662457	-0.038903822	0.055125746	-0.0032482094	-0.36350663	0.21762614	0.055086252	-0.11416168	0.015648837	-0.048115328	-0.43571128	0.26724118	0.071178288	0.061776621	0.40257249	-0.1119398	-0.059878401	0.37191934	0.17880142	0.035763114	0.40205551	0.0078416714	-0.060547726	0.35620269	0.043576441	-0.080221112	0.775209	-0.17513312	-0.15727023	0.72734628	0.15441667	-0.020692846	0.80996808	-0.11820286	-0.048506764	0.78990975	0.1291003	-0.21873675	0.87714468	-5.45953e-06	-0.086253692	1.2712078	-0.19650709	-0.097552811	1.2829214	0.16650738	-0.16665247	1.317471	-0.0202504	-0.18264707	0.96930524	-0.23178867	-0.16423771	0.96623858	0.24100576	-0.089997373	0.75029557	-0.28401704	0.037243968	0.81956264	0.24389213
191	0.76	0.085418733	0.009499337	-0.064681861	-0.35747128	0.094538488	0.12161984	-0.036469204	0.041218688	-0.090828053	-0.38611853	0.22991671	0.136813	-0.039043578	0.055205131	-0.0032182732	-0.34815164	0.21774296	0.055219754	-0.11420194	0.015682199	-0.048064469	-0.42149778	0.26602323	0.071210381	0.062978245	0.40262056	-0.11147362	-0.046767053	0.37569882	0.17895755	0.036762551	0.40200001	0.0082228943	-0.047111113	0.35949425	0.0435906	-0.075201862	0.77660667	-0.17550391	-0.15121052	0.72994733	0.15529877	-0.015262381	0.81136401	-0.11875878	-0.042448037	0.79202242	0.12882536	-0.21269931	0.87944402	-0.00049080932	-0.079462893	1.2735609	-0.19626425	-0.091560411	1.2848866	0.16675533	-0.16008315	1.319519	-0.020120287	-0.17400255	0.97070818	-0.23231916	-0.15997308	0.96862013	0.2404619	-0.0782433	0.75279027	-0.28350299	0.038638073	0.81860734	0.24484982
192	0.764	0.085310313	0.0094462362	-0.064619589	-0.33921552	0.094738677	0.12231088	-0.036539777	0.041276855	-0.090819988	-0.37058574	0.22957495	0.13700535	-0.039174665	0.055294453	-0.0031822152	-0.33266828	0.21764476	0.055351235	-0.11430469	0.015722051	-0.048144451	-0.40734545	0.26451805	0.071273809	0.064070658	0.40268207	-0.11097105	-0.03373214	0.37961333	0.17906773	0.037460421	0.40186821	0.0085853823	-0.033741729	0.36280927	0.043613253	-0.070173123	0.77803968	-0.17580344	-0.14477498	0.7325816	0.1562836	-0.0097298599	0.81291585	-0.11928723	-0.036334988	0.79418873	0.12848879	-0.20664145	0.88173642	-0.001018546	-0.072701141	1.2759801	-0.19601917	-0.08550859	1.2868663	0.16697088	-0.15354355	1.3215933	-0.019966006	-0.16534611	0.97216866	-0.23287403	-0.15578219	0.97107176	0.23993153	-0.066441434	0.75539633	-0.28294838	0.039928813	0.81776632	0.2457722
193	0.768	0.085172275	0.0094306781	-0.064653807	-0.32076292	0.094798996	0.122972	-0.036605263	0.041349487	-0.090816133	-0.35518225	0.22883903	0.13711752	-0.039284151	0.055373019	-0.0031427536	-0.31698525	0.21732936	0.055524135	-0.11444917	0.0157648	-0.048305902	-0.3932442	0.26275547	0.071389844	0.065069738	0.40274637	-0.11044274	-0.020786566	0.38364548	0.1791268	0.03782564	0.40165343	0.0089279302	-0.020405617	0.36624117	0.043618463	-0.065030157	0.77951664	-0.17602814	-0.13797586	0.73522877	0.1573265	-0.0040979756	0.81461046	-0.11977931	-0.030177223	0.7964055	0.12809351	-0.20059551	0.88398377	-0.0014877747	-0.065906688	1.2784503	-0.19579282	-0.079383683	1.2888515	0.16715688	-0.14702503	1.3236929	-0.019791486	-0.15675133	0.97369953	-0.23334017	-0.15166376	0.97357526	0.23940541	-0.054628455	0.75810393	-0.2823474	0.041143238	0.81703383	0.24666146
194	0.772	0.085064803	0.0094877323	-0.064755062	-0.30209836	0.09473401	0.12362583	-0.036628709	0.04143794	-0.090769691	-0.33997526	0.22762868	0.13712198	-0.039375165	0.055442463	-0.0030818566	-0.30115355	0.21681086	0.055698043	-0.11457634	0.015803839	-0.04841164	-0.37912186	0.26078079	0.071584828	0.06600786	0.40281022	-0.10988228	-0.0079466034	0.38777881	0.17912991	0.037948362	0.40140745	0.0093057732	-0.0070749563	0.36989123	0.043586863	-0.05971643	0.78103831	-0.17620422	-0.13081591	0.73786878	0.15838515	0.001582753	0.81641025	-0.12021621	-0.023978576	0.79867096	0.12764584	-0.19454939	0.88618075	-0.0018155834	-0.059074028	1.2809578	-0.19556816	-0.07318092	1.2908325	0.16731681	-0.14051332	1.3258046	-0.019605787	-0.14820115	0.97528922	-0.23373741	-0.14758965	0.97612104	0.23887791	-0.042801634	0.76090919	-0.28169413	0.042302283	0.81640204	0.24753953
195	0.776	0.08503266	0.0096086804	-0.064850836	-0.28321162	0.094548884	0.12428198	-0.036604084	0.041540335	-0.090665155	-0.3247933	0.22606108	0.13709342	-0.039465106	0.055518691	-0.0029678431	-0.28531644	0.21612555	0.055758832	-0.11465797	0.015843224	-0.048394563	-0.36485884	0.25858312	0.071832403	0.066924048	0.40287894	-0.10927719	0.0047767108	0.39199611	0.17907713	0.037931179	0.40118862	0.0097496937	0.006214488	0.37379549	0.043519893	-0.054284101	0.78257183	-0.17635659	-0.12328531	0.7404746	0.15941335	0.0072547062	0.81826959	-0.12058822	-0.017737422	0.80098358	0.12715345	-0.18846068	0.88834304	-0.0019854468	-0.052276915	1.2834925	-0.19530807	-0.06691333	1.2928005	0.16745563	-0.13399878	1.3279096	-0.01941823	-0.13964115	0.9769198	-0.23414708	-0.14352912	0.97870357	0.23834521	-0.030935574	0.76381195	-0.28097989	0.043416182	0.81586385	0.24843
